<svg width="39" height="64" viewBox="0 0 39 64" fill="none" xmlns="http://www.w3.org/2000/svg">
<path d="M38.2168 9.41957C38.3129 9.41957 38.4051 9.38124 38.4731 9.313C38.541 9.24476 38.5792 9.15221 38.5792 9.05571V0.363859C38.5792 0.267357 38.541 0.174808 38.4731 0.106572C38.4051 0.038335 38.3129 0 38.2168 0L29.1839 0C29.0878 0 28.9957 0.038335 28.9277 0.106572C28.8597 0.174808 28.8215 0.267357 28.8215 0.363859V1.85786L10.7577 1.85804V0.364032C10.7577 0.267531 10.7195 0.174982 10.6515 0.106745C10.5836 0.0385084 10.4914 0.000173354 10.3953 0.000173354L1.3624 0.000173354C1.26628 0.000173354 1.1741 0.0385084 1.10613 0.106745C1.03816 0.174982 0.999981 0.267531 0.999981 0.364032L0.999981 9.05589C0.999981 9.15239 1.03816 9.24494 1.10613 9.31317C1.1741 9.38141 1.26628 9.41975 1.3624 9.41975H2.80047L2.80047 54.579H1.3624C1.26628 54.579 1.1741 54.6173 1.10613 54.6855C1.03816 54.7538 0.999981 54.8463 0.999981 54.9428L0.999981 63.6361C0.999981 63.7326 1.03816 63.8252 1.10613 63.8934C1.1741 63.9617 1.26628 64 1.3624 64H10.3953C10.4914 64 10.5836 63.9617 10.6515 63.8934C10.7195 63.8252 10.7577 63.7326 10.7577 63.6361V62.1421L28.8215 62.142V63.636C28.8215 63.7325 28.8597 63.825 28.9277 63.8933C28.9957 63.9615 29.0878 63.9998 29.1839 63.9998H38.2168C38.3129 63.9998 38.4051 63.9615 38.4731 63.8933C38.541 63.825 38.5792 63.7325 38.5792 63.636L38.5792 54.9427C38.5792 54.8462 38.541 54.7536 38.4731 54.6854C38.4051 54.6171 38.3129 54.5788 38.2168 54.5788H36.7758V9.41957H38.2168ZM29.5464 0.727717L37.8544 0.727717V8.69185H36.7758V4.30881C36.7758 4.21231 36.7377 4.11976 36.6697 4.05153C36.6017 3.98329 36.5095 3.94495 36.4134 3.94495H34.6499V2.22172C34.6499 2.12522 34.6117 2.03267 34.5438 1.96443C34.4758 1.8962 34.3836 1.85786 34.2875 1.85786L29.5464 1.85786V0.727717ZM30.6148 54.5788H29.1839C29.0878 54.5788 28.9957 54.6171 28.9277 54.6854C28.8597 54.7536 28.8215 54.8462 28.8215 54.9427V56.3668H27.9909V53.7325H30.6148V54.5788ZM30.6691 59.6932C30.6703 59.7889 30.709 59.8804 30.7768 59.9477C30.8446 60.015 30.9362 60.0527 31.0315 60.0527H32.8045C32.9006 60.0527 32.9928 60.0143 33.0608 59.9461C33.1287 59.8779 33.1669 59.7853 33.1669 59.6888L33.1669 58.4277C33.1669 58.3312 33.1287 58.2386 33.0608 58.1704C32.9928 58.1022 32.9006 58.0638 32.8045 58.0638C32.7084 58.0638 32.6162 58.1022 32.5482 58.1704C32.4803 58.2386 32.4421 58.3312 32.4421 58.4277V59.3264H31.394V57.096H33.9251L33.9251 61.4142H29.5464V57.096H30.6691V59.5338V59.6932ZM34.2853 56.3668H31.3396V55.3065H36.051L36.051 59.325H34.6499L34.6499 56.7321C34.6499 56.6356 34.6117 56.5431 34.5438 56.4748C34.4758 56.4066 34.3836 56.3683 34.2875 56.3683L34.2853 56.3668ZM30.6148 56.3668H29.5464V55.3065H30.6148V56.3668ZM30.9772 53.0033H27.6154C27.5193 53.0033 27.4271 53.0416 27.3591 53.1099C27.2912 53.1781 27.253 53.2706 27.253 53.3671V59.8373L12.3262 59.8375V53.3688C12.3262 53.2723 12.288 53.1797 12.2201 53.1115C12.1521 53.0433 12.0599 53.0049 11.9638 53.0049H5.09456L5.09456 10.9945H11.9638C12.0599 10.9945 12.1521 10.9562 12.2201 10.888C12.288 10.8197 12.3262 10.7272 12.3262 10.6307V4.16053L27.253 4.16036V10.6305C27.253 10.727 27.2912 10.8195 27.3591 10.8878C27.4271 10.956 27.5193 10.9944 27.6154 10.9944H34.4854V53.0047L30.9772 53.0033ZM3.5253 55.3067H8.24831V56.367H5.29172C5.1956 56.367 5.10341 56.4053 5.03545 56.4735C4.96748 56.5418 4.9293 56.6343 4.9293 56.7308V59.3251H3.5253V55.3067ZM5.65413 57.0947H8.18525V59.3251H7.13569V58.4279C7.13569 58.3314 7.09751 58.2388 7.02954 58.1706C6.96157 58.1023 6.86939 58.064 6.77327 58.064C6.67715 58.064 6.58497 58.1023 6.51701 58.1706C6.44904 58.2388 6.41086 58.3314 6.41086 58.4279V59.6905C6.41086 59.787 6.44904 59.8795 6.51701 59.9477C6.58497 60.016 6.67715 60.0543 6.77327 60.0543H8.54549C8.64086 60.0543 8.73239 60.0166 8.80023 59.9493C8.86807 59.882 8.90676 59.7906 8.90791 59.6948V59.5296V57.0961H10.0307V61.4144H5.65413V57.0947ZM8.97604 56.367V55.3067H10.0328V56.367H8.97604ZM10.3953 54.579H8.97314V53.7326H11.5985V56.3684H10.7577V54.9428C10.7577 54.8463 10.7195 54.7538 10.6515 54.6855C10.5836 54.6173 10.4914 54.579 10.3953 54.579ZM8.97314 9.41975H10.3924C10.4885 9.41975 10.5807 9.38141 10.6486 9.31317C10.7166 9.24494 10.7548 9.15239 10.7548 9.05589V7.63102H11.5985V10.2668H8.97314V9.41975ZM8.90501 4.30462C8.90386 4.20888 8.86517 4.11745 8.79733 4.05015C8.72949 3.98286 8.63796 3.94512 8.54259 3.94513H6.77327C6.67715 3.94513 6.58497 3.98346 6.51701 4.0517C6.44904 4.11994 6.41086 4.21249 6.41086 4.30899V5.5723C6.41086 5.66881 6.44904 5.76135 6.51701 5.82959C6.58497 5.89783 6.67715 5.93616 6.77327 5.93616C6.86939 5.93616 6.96157 5.89783 7.02954 5.82959C7.09751 5.76135 7.13569 5.66881 7.13569 5.5723V4.67285H8.18525V6.9033H5.65413V2.58575H10.0328V6.9033H8.91008V4.46617L8.90501 4.30462ZM5.29172 7.63102L8.24831 7.63102V8.69203H3.5253V4.67285H4.9293V7.26716C4.9293 7.36366 4.96748 7.45621 5.03545 7.52444C5.10341 7.59268 5.1956 7.63102 5.29172 7.63102ZM8.97604 7.63102H10.0328V8.69203H8.97314L8.97604 7.63102ZM27.9909 10.2666V7.63084H28.8215V9.05571C28.8215 9.15221 28.8597 9.24476 28.9277 9.313C28.9957 9.38124 29.0878 9.41957 29.1839 9.41957H30.6148V10.2666H27.9909ZM29.5464 8.69185V7.63084H30.6148V8.69185H29.5464ZM33.9251 6.90313H31.394V4.67267H32.4442V5.57213C32.4442 5.66863 32.4824 5.76118 32.5504 5.82942C32.6184 5.89765 32.7105 5.93599 32.8067 5.93599C32.9028 5.93599 32.995 5.89765 33.0629 5.82942C33.1309 5.76118 33.1691 5.66863 33.1691 5.57213V4.30881C33.1691 4.21231 33.1309 4.11976 33.0629 4.05153C32.995 3.98329 32.9028 3.94495 32.8067 3.94495H31.0337C30.9384 3.94495 30.8468 3.98268 30.779 4.04998C30.7111 4.11727 30.6725 4.20871 30.6713 4.30445V4.47037V6.90313H29.5464V2.58558L33.9251 2.58558V6.90313ZM31.3418 7.63084H34.2875C34.3836 7.63084 34.4758 7.59251 34.5438 7.52427C34.6117 7.45603 34.6499 7.36349 34.6499 7.26698V4.67267H36.051V8.69185H31.3396L31.3418 7.63084ZM28.8215 2.58558V6.90313H27.9778V3.7965C27.9778 3.7 27.9396 3.60745 27.8717 3.53921C27.8037 3.47098 27.7115 3.43264 27.6154 3.43264L11.9638 3.43282C11.8677 3.43282 11.7755 3.47115 11.7075 3.53939C11.6396 3.60762 11.6014 3.70017 11.6014 3.79667V6.9033H10.7577V2.58575L28.8215 2.58558ZM1.72481 8.69203L1.72481 0.727891L10.0328 0.727891V1.85804L5.29172 1.85804C5.1956 1.85804 5.10341 1.89637 5.03545 1.96461C4.96748 2.03284 4.9293 2.12539 4.9293 2.22189V3.94513L3.16288 3.94513C3.06676 3.94513 2.97458 3.98346 2.90662 4.0517C2.83865 4.11994 2.80047 4.21249 2.80047 4.30899V8.69203H1.72481ZM3.5253 9.41975H8.24831V10.2668H4.73214C4.63603 10.2668 4.54384 10.3051 4.47588 10.3734C4.40791 10.4416 4.36973 10.5342 4.36973 10.6307L4.36973 53.3688C4.36973 53.4653 4.40791 53.5578 4.47588 53.6261C4.54384 53.6943 4.63603 53.7326 4.73214 53.7326H8.24831V54.579H3.5253L3.5253 9.41975ZM10.0328 63.2708H1.72481L1.72481 55.3067H2.80047L2.80047 59.689C2.80047 59.7855 2.83865 59.878 2.90662 59.9463C2.97458 60.0145 3.06676 60.0529 3.16288 60.0529H4.9293V61.7768C4.9293 61.8733 4.96748 61.9659 5.03545 62.0341C5.10341 62.1023 5.1956 62.1407 5.29172 62.1407H10.0328V63.2708ZM10.7577 61.413V57.0961H11.6014V60.2028C11.6014 60.2993 11.6396 60.3918 11.7075 60.4601C11.7755 60.5283 11.8677 60.5666 11.9638 60.5666L27.6154 60.5665C27.7115 60.5665 27.8037 60.5281 27.8717 60.4599C27.9396 60.3916 27.9778 60.2991 27.9778 60.2026V57.096H28.8215V61.4142L10.7577 61.413ZM37.8544 55.3065L37.8544 63.2721H29.5464V62.142H34.2875C34.3836 62.142 34.4758 62.1036 34.5438 62.0354C34.6117 61.9671 34.6499 61.8746 34.6499 61.7781V60.0541H36.4134C36.5095 60.0541 36.6017 60.0158 36.6697 59.9476C36.7377 59.8793 36.7758 59.7868 36.7758 59.6903L36.7758 55.3065H37.8544ZM36.051 54.5788H31.3396V53.7325H34.8478C34.9439 53.7325 35.0361 53.6941 35.1041 53.6259C35.172 53.5577 35.2102 53.4651 35.2102 53.3686V10.6305C35.2102 10.534 35.172 10.4414 35.1041 10.3732C35.0361 10.305 34.9439 10.2666 34.8478 10.2666H31.3396V9.41957H36.051V54.5788Z" fill="#CB6843"/>
<path d="M18.5167 11.4688C18.8553 11.4688 19.2589 11.5664 19.7277 11.7617C20.2355 11.9831 20.5675 12.1979 20.7238 12.4062C20.88 12.6536 20.9581 12.8945 20.9581 13.1289C20.9581 13.7409 20.6912 14.0469 20.1573 14.0469C19.8839 14.0469 19.5193 13.7083 19.0636 13.0312C18.5558 12.276 18.3019 11.8073 18.3019 11.625C18.3019 11.5339 18.3735 11.4818 18.5167 11.4688ZM14.6886 13.5C14.8188 13.5 14.962 13.6758 15.1183 14.0273C15.2225 14.3529 15.2745 14.6458 15.2745 14.9062C15.2745 15.2057 15.1443 15.6094 14.8839 16.1172C14.5975 16.638 14.337 17.0091 14.1027 17.2305C13.9073 17.3477 13.7381 17.4062 13.5948 17.4062C13.4386 17.4062 13.2823 17.3151 13.1261 17.1328C13.035 16.9766 12.9894 16.8008 12.9894 16.6055C12.9894 16.3971 13.048 16.2214 13.1652 16.0781C13.5037 15.7005 13.9269 14.9258 14.4347 13.7539C14.4868 13.5846 14.5714 13.5 14.6886 13.5ZM25.587 13.1875C25.7823 13.1875 26.1534 13.4154 26.7003 13.8711C27.3253 14.4049 27.6378 14.7891 27.6378 15.0234C27.6378 15.2969 27.3904 15.4531 26.8956 15.4922C26.1534 15.5964 25.2615 15.8177 24.2198 16.1562C24.1417 16.1562 24.1027 16.1172 24.1027 16.0391C24.7667 15.1016 25.0988 14.5482 25.0988 14.3789C25.0988 14.2617 24.9685 14.2031 24.7081 14.2031C22.7029 14.2422 19.8969 14.5547 16.2902 15.1406C15.9907 15.1797 15.8149 15.1992 15.7628 15.1992C15.3462 15.1992 15.0402 15.1081 14.8448 14.9258C14.5844 14.7305 14.4542 14.5807 14.4542 14.4766C14.4542 14.3724 14.5389 14.3138 14.7081 14.3008C14.7081 14.3008 14.9165 14.3008 15.3331 14.3008C18.0024 14.2357 21.1339 13.9102 24.7277 13.3242C25.1573 13.2331 25.4438 13.1875 25.587 13.1875ZM21.7394 16.0195C21.9607 16.0195 22.2537 16.1107 22.6183 16.293C22.8527 16.3971 22.9698 16.5273 22.9698 16.6836C22.9698 16.7878 22.8396 16.8659 22.5792 16.918C22.2928 17.0221 21.6352 17.1523 20.6066 17.3086C19.0701 17.5169 18.0675 17.6211 17.5988 17.6211C17.0649 17.6211 16.6938 17.5625 16.4855 17.4453C16.2771 17.2891 16.173 17.1589 16.173 17.0547C16.173 16.9766 16.3618 16.931 16.7394 16.918C17.6118 16.8268 18.5753 16.6836 19.63 16.4883C20.3722 16.3711 20.9712 16.2409 21.4269 16.0977C21.5831 16.0456 21.6873 16.0195 21.7394 16.0195ZM18.9073 17.25C19.1808 17.25 19.4347 17.3477 19.6691 17.543C19.9165 17.7383 20.0402 17.9336 20.0402 18.1289C20.0402 18.194 19.9555 18.2591 19.7863 18.3242C19.643 18.4284 19.5193 18.5326 19.4152 18.6367C19.1027 18.8841 18.7576 19.151 18.38 19.4375C17.7941 19.8021 17.2016 20.1211 16.6027 20.3945C16.0167 20.6159 15.4633 20.7917 14.9425 20.9219C14.4477 21.026 14.1547 21.0781 14.0636 21.0781C13.9204 21.0781 13.8488 21.0521 13.8488 21C14.5519 20.6615 15.0857 20.375 15.4503 20.1406C16.2576 19.6719 16.9477 19.2096 17.5206 18.7539C18.0154 18.3633 18.3475 18.0508 18.5167 17.8164C18.6469 17.6862 18.712 17.556 18.712 17.4258C18.712 17.3086 18.7771 17.25 18.9073 17.25ZM17.9113 18.9688C18.6014 19.138 19.1743 19.3984 19.63 19.75C20.2941 20.2839 20.7954 20.9674 21.1339 21.8008C21.4204 22.5169 21.5636 23.4414 21.5636 24.5742C21.5376 25.4206 21.4073 26.2344 21.173 27.0156C20.9646 27.6927 20.6326 28.2526 20.1769 28.6953C19.9816 28.8776 19.7928 28.9688 19.6105 28.9688C19.4542 28.9688 19.2784 28.8516 19.0831 28.6172C18.7576 28.2526 18.2368 27.7188 17.5206 27.0156C17.5206 26.9635 17.5662 26.9375 17.6573 26.9375C18.3995 27.1198 18.8488 27.2109 19.005 27.2109C19.4087 27.2109 19.7146 26.8724 19.923 26.1953C20.1964 25.3359 20.3331 24.4115 20.3331 23.4219C20.3331 22.4062 20.1118 21.5469 19.6691 20.8438C19.3305 20.3099 18.8357 19.8281 18.1847 19.3984C17.9113 19.2422 17.7745 19.125 17.7745 19.0469C17.7876 18.9948 17.8331 18.9688 17.9113 18.9688ZM19.1613 19.9062C19.3956 19.9062 19.617 19.9909 19.8253 20.1602C20.0337 20.3164 20.1378 20.4792 20.1378 20.6484C20.1378 20.7266 20.0467 20.8047 19.8644 20.8828C19.7081 21 19.5779 21.1172 19.4738 21.2344C19.1482 21.5208 18.7771 21.8333 18.3605 22.1719C17.7355 22.5885 17.104 22.9466 16.4659 23.2461C15.8409 23.5065 15.2485 23.7083 14.6886 23.8516C14.1678 23.9818 13.8553 24.0469 13.7511 24.0469C13.6339 24.0469 13.5753 24.0208 13.5753 23.9688C14.3696 23.6042 14.962 23.2917 15.3527 23.0312C16.2641 22.5234 17.0323 22.0221 17.6573 21.5273C18.2042 21.0846 18.5688 20.7396 18.7511 20.4922C18.9073 20.349 18.9855 20.2057 18.9855 20.0625C18.9855 19.9583 19.0441 19.9062 19.1613 19.9062ZM20.1964 21.625C20.4568 21.625 20.6977 21.7161 20.9191 21.8984C21.1404 22.0677 21.2511 22.2435 21.2511 22.4258C21.2511 22.5299 21.1404 22.6341 20.9191 22.7383C20.7368 22.8945 20.587 23.0508 20.4698 23.207C20.0662 23.5977 19.617 24.0208 19.1222 24.4766C18.38 25.0365 17.6183 25.5247 16.837 25.9414C16.0948 26.293 15.3852 26.5664 14.7081 26.7617C14.0962 26.931 13.7251 27.0156 13.5948 27.0156C13.4646 27.0156 13.3995 26.9896 13.3995 26.9375C14.3631 26.4557 15.0857 26.0391 15.5675 25.6875C16.6873 25.0234 17.6313 24.3659 18.3995 23.7148C19.0766 23.1419 19.5258 22.6797 19.7472 22.3281C19.9295 22.1458 20.0206 21.9635 20.0206 21.7812C20.0206 21.6771 20.0792 21.625 20.1964 21.625ZM24.0245 17.9531C24.1808 17.9531 24.4477 18.1029 24.8253 18.4023C25.1639 18.6628 25.3331 18.9036 25.3331 19.125C25.3331 19.3203 25.1639 19.4766 24.8253 19.5938C24.2264 19.776 23.5428 20.0495 22.7745 20.4141C21.4073 21.0651 20.587 21.3906 20.3136 21.3906C20.2355 21.3906 20.1964 21.3516 20.1964 21.2734C20.1964 21.2214 20.2225 21.1888 20.2745 21.1758C21.0297 20.7721 21.6808 20.3294 22.2277 19.8477C22.6704 19.4701 23.1456 18.9167 23.6534 18.1875C23.7446 18.0312 23.8683 17.9531 24.0245 17.9531ZM20.3917 20.9414C20.574 20.9414 20.8865 21.1172 21.3292 21.4688C23.1652 22.8229 24.4282 23.6432 25.1183 23.9297C25.7303 24.2161 26.9021 24.5352 28.6339 24.8867C29.0245 24.9648 29.2198 25.0365 29.2198 25.1016C29.2198 25.1797 29.1092 25.2578 28.8878 25.3359C28.0545 25.6224 27.6378 25.7656 27.6378 25.7656C27.0649 25.974 26.6417 26.0781 26.3683 26.0781C26.0688 26.0781 25.7238 25.9479 25.3331 25.6875C24.617 25.2057 23.6469 24.3789 22.423 23.207C21.8631 22.6211 21.2055 22.0352 20.4503 21.4492C20.3071 21.332 20.2355 21.2344 20.2355 21.1562C20.2355 21.013 20.2876 20.9414 20.3917 20.9414ZM14.3761 36.9531C14.5584 36.9531 14.7537 37.0052 14.962 37.1094C15.4698 37.3177 15.854 37.5456 16.1144 37.793C16.3357 38.0794 16.4464 38.4701 16.4464 38.9648C16.4464 39.4987 16.2251 39.7656 15.7823 39.7656C15.6521 39.7656 15.5219 39.6745 15.3917 39.4922C15.1183 39.1667 14.7407 38.4701 14.2589 37.4023C14.1938 37.2852 14.1613 37.2005 14.1613 37.1484C14.1873 37.0182 14.2589 36.9531 14.3761 36.9531ZM17.3644 39.4531C17.5988 39.4531 17.8657 39.5182 18.1652 39.6484C18.3995 39.8047 18.5167 39.9674 18.5167 40.1367C18.5167 40.2279 18.406 40.2799 18.1847 40.293C16.8566 40.4102 15.229 40.7292 13.3019 41.25C12.8852 41.3802 12.6248 41.4453 12.5206 41.4453C12.3123 41.4453 11.9803 41.3477 11.5245 41.1523C11.186 40.957 11.0167 40.7812 11.0167 40.625C11.0167 40.5599 11.1144 40.5143 11.3097 40.4883C12.3514 40.3581 14.0376 40.0716 16.3683 39.6289C16.9412 39.5117 17.2732 39.4531 17.3644 39.4531ZM15.9777 42.0703C16.1079 42.0703 16.3618 42.1159 16.7394 42.207C17.0909 42.3242 17.2667 42.4284 17.2667 42.5195C17.2667 42.6628 17.0584 42.7799 16.6417 42.8711C16.4204 42.9102 16.2316 42.9492 16.0753 42.9883C15.9451 43.0143 15.5935 43.099 15.0206 43.2422C14.7212 43.3203 14.4998 43.3594 14.3566 43.3594C14.0831 43.3594 13.8618 43.3333 13.6925 43.2812C13.4191 43.1901 13.2823 43.0924 13.2823 42.9883C13.2823 42.819 13.4907 42.7279 13.9073 42.7148C14.5193 42.5716 15.1183 42.3828 15.7042 42.1484C15.8735 42.0964 15.9646 42.0703 15.9777 42.0703ZM15.9777 44.1016C16.1079 44.1016 16.3618 44.1471 16.7394 44.2383C17.0909 44.3555 17.2667 44.4596 17.2667 44.5508C17.2667 44.694 17.0584 44.8112 16.6417 44.9023C16.4204 44.9284 16.2316 44.9609 16.0753 45C15.9451 45.026 15.5935 45.0977 15.0206 45.2148C14.7212 45.2799 14.4998 45.3125 14.3566 45.3125C14.0831 45.3125 13.8618 45.2865 13.6925 45.2344C13.4191 45.1432 13.2823 45.0456 13.2823 44.9414C13.2823 44.7721 13.4907 44.681 13.9073 44.668C14.5193 44.5378 15.1183 44.375 15.7042 44.1797C15.8735 44.1276 15.9646 44.1016 15.9777 44.1016ZM12.7745 46.7969C13.048 46.7969 13.2823 46.8359 13.4777 46.9141C13.9334 47.0703 14.1613 47.2591 14.1613 47.4805C14.1613 47.6237 14.1743 47.7669 14.2003 47.9102C14.3696 48.8346 14.4542 49.4727 14.4542 49.8242C14.4542 50.0456 14.4217 50.2148 14.3566 50.332C14.2915 50.4753 14.2133 50.5469 14.1222 50.5469C14.018 50.5469 13.9139 50.4622 13.8097 50.293C13.6534 50.0716 13.5688 49.8372 13.5558 49.5898C13.4256 48.9909 13.3605 48.6914 13.3605 48.6914C13.2693 48.2227 13.1847 47.8971 13.1066 47.7148C13.0415 47.5195 12.8917 47.3438 12.6573 47.1875C12.5662 47.1354 12.5206 47.1029 12.5206 47.0898C12.5206 46.8945 12.6053 46.7969 12.7745 46.7969ZM16.3292 46.1719C16.5376 46.1719 16.8761 46.2826 17.3448 46.5039C17.5662 46.6341 17.6769 46.7773 17.6769 46.9336C17.6769 47.0638 17.6118 47.2005 17.4816 47.3438C17.3383 47.5391 17.2081 47.819 17.0909 48.1836C17.0909 48.1836 16.9803 48.5677 16.7589 49.3359C16.6678 49.5182 16.5245 49.6094 16.3292 49.6094C16.0297 49.6094 15.88 49.5443 15.88 49.4141C15.88 49.362 15.8865 49.2643 15.8995 49.1211C15.9646 48.7305 16.0102 48.3854 16.0363 48.0859C16.0623 47.7604 16.0753 47.5 16.0753 47.3047C16.0753 47.2005 16.0102 47.1484 15.88 47.1484C15.6847 47.1484 15.4308 47.194 15.1183 47.2852C14.4933 47.4544 14.0831 47.5391 13.8878 47.5391C13.7446 47.5391 13.6014 47.474 13.4581 47.3438C13.2889 47.2396 13.2042 47.168 13.2042 47.1289C13.2042 47.0378 13.2758 46.9922 13.4191 46.9922C13.9659 46.9401 14.4347 46.862 14.8253 46.7578C15.229 46.6667 15.6131 46.5169 15.9777 46.3086C16.1339 46.2174 16.2511 46.1719 16.3292 46.1719ZM15.9777 49.1211C16.1339 49.1211 16.3683 49.1927 16.6808 49.3359C16.9152 49.5052 17.0323 49.6419 17.0323 49.7461C17.0323 49.8242 16.9998 49.8633 16.9347 49.8633C16.6482 49.8633 16.3878 49.8893 16.1534 49.9414C15.4373 50.0456 15.0792 50.0977 15.0792 50.0977C14.8839 50.1367 14.7342 50.1562 14.63 50.1562C14.3566 50.1562 14.1678 50.1042 14.0636 50C13.9594 49.8958 13.9073 49.8047 13.9073 49.7266C13.9073 49.5964 13.9855 49.5312 14.1417 49.5312C14.6365 49.4792 15.0922 49.375 15.5089 49.2188C15.7433 49.1536 15.8995 49.1211 15.9777 49.1211ZM19.923 36.5625C20.2094 36.5625 20.5545 36.6732 20.9581 36.8945C21.3748 37.1159 21.6482 37.3438 21.7784 37.5781C21.9087 37.8255 21.9738 38.0794 21.9738 38.3398C21.9738 38.7695 21.785 38.9844 21.4073 38.9844C21.173 38.9844 20.854 38.6654 20.4503 38.0273C20.0076 37.2982 19.7863 36.849 19.7863 36.6797C19.7863 36.6146 19.8318 36.5755 19.923 36.5625ZM24.6691 35.5469C24.8514 35.5469 25.1508 35.651 25.5675 35.8594C25.9581 36.1068 26.1534 36.3151 26.1534 36.4844C26.1534 36.5365 26.1014 36.5951 25.9972 36.6602C25.8409 36.7383 25.6261 36.9206 25.3527 37.207C24.91 37.6628 24.4152 38.112 23.8683 38.5547C23.4907 38.7891 23.2693 38.9062 23.2042 38.9062C23.1521 38.9062 23.1261 38.8802 23.1261 38.8281C23.5558 38.099 23.8878 37.4544 24.1222 36.8945C24.3175 36.4128 24.4152 36.0547 24.4152 35.8203C24.4152 35.638 24.4998 35.5469 24.6691 35.5469ZM26.1534 38.6719C26.3488 38.6719 26.5962 38.75 26.8956 38.9062C27.0909 38.9844 27.1886 39.0885 27.1886 39.2188C27.1886 39.349 27.0258 39.4531 26.7003 39.5312C26.3097 39.6745 25.4568 39.8503 24.1417 40.0586C22.1626 40.3451 20.867 40.4883 20.255 40.4883C19.8123 40.4883 19.4998 40.4362 19.3175 40.332C19.1482 40.2148 19.0636 40.1107 19.0636 40.0195C19.0636 39.9154 19.3045 39.8503 19.7863 39.8242C20.906 39.7201 22.1365 39.5443 23.4777 39.2969C24.4152 39.1276 25.1704 38.9583 25.7433 38.7891C25.9516 38.7109 26.0883 38.6719 26.1534 38.6719ZM21.173 40.1562C21.3813 40.1562 21.6352 40.2148 21.9347 40.332C22.143 40.4362 22.2472 40.5534 22.2472 40.6836C22.2472 40.7747 22.2342 40.8659 22.2081 40.957C22.1691 41.1523 22.1495 41.3151 22.1495 41.4453L22.0128 44.8438H21.2511L21.1534 41.1133C21.1404 40.9701 21.0883 40.8138 20.9972 40.6445C20.9191 40.5534 20.88 40.4883 20.88 40.4492C20.88 40.2539 20.9777 40.1562 21.173 40.1562ZM23.5167 39.7656C23.7251 39.7656 23.979 39.8242 24.2784 39.9414C24.4868 40.0456 24.5909 40.1628 24.5909 40.293C24.5909 40.3841 24.5779 40.4753 24.5519 40.5664C24.5128 40.7617 24.4933 40.9245 24.4933 41.0547L24.1222 44.6094H23.3605L23.4972 40.7227C23.4842 40.5794 23.4321 40.4232 23.3409 40.2539C23.2628 40.1628 23.2238 40.0977 23.2238 40.0586C23.2238 39.8633 23.3214 39.7656 23.5167 39.7656ZM18.9073 41.7969C19.0376 41.7969 19.1873 41.8359 19.3566 41.9141C19.7342 42.0703 20.0206 42.2461 20.2159 42.4414C20.3852 42.6628 20.4698 42.9622 20.4698 43.3398C20.4698 43.7174 20.3136 43.9062 20.0011 43.9062C19.91 43.9062 19.8058 43.8346 19.6886 43.6914C19.4933 43.444 19.2133 42.9232 18.8488 42.1289C18.7967 42.0378 18.7706 41.9727 18.7706 41.9336C18.7967 41.8424 18.8422 41.7969 18.9073 41.7969ZM26.5245 40.5469C26.6417 40.5469 26.8566 40.6576 27.1691 40.8789C27.5206 41.1523 27.6964 41.3411 27.6964 41.4453C27.6964 41.5755 27.6313 41.6862 27.5011 41.7773C27.0193 42.194 26.2511 42.7409 25.1964 43.418C25.0922 43.4831 25.0011 43.5156 24.923 43.5156C24.8839 43.5156 24.8644 43.4896 24.8644 43.4375C24.8644 43.4245 24.8904 43.3854 24.9425 43.3203C25.268 42.8776 25.5415 42.4544 25.7628 42.0508C26.0623 41.543 26.2706 41.1068 26.3878 40.7422C26.4269 40.612 26.4725 40.5469 26.5245 40.5469ZM27.6964 43.75C27.8396 43.75 28.1326 43.8542 28.5753 44.0625C28.9529 44.2969 29.1417 44.5052 29.1417 44.6875C29.1417 44.8698 28.992 44.9609 28.6925 44.9609C28.4321 44.9609 28.0935 44.9479 27.6769 44.9219C27.2732 44.9089 26.824 44.9023 26.3292 44.9023C25.4047 44.9023 24.2784 44.9805 22.9503 45.1367C21.492 45.293 20.3657 45.4818 19.5714 45.7031C19.1938 45.8333 18.9659 45.8984 18.8878 45.8984C18.7055 45.8984 18.4321 45.7682 18.0675 45.5078C17.742 45.2995 17.5792 45.1497 17.5792 45.0586C17.5792 44.9284 17.6899 44.8568 17.9113 44.8438C18.4842 44.8438 19.2589 44.7721 20.2355 44.6289C22.1365 44.3945 23.3995 44.2448 24.0245 44.1797C24.5584 44.1276 25.3136 44.056 26.2902 43.9648C27.1756 43.8216 27.6443 43.75 27.6964 43.75ZM20.0206 46.5625C20.0988 46.5625 20.3006 46.6081 20.6261 46.6992C20.8995 46.8164 21.0428 46.9466 21.0558 47.0898L21.0363 51.6602C21.0363 51.8164 20.9777 52.0052 20.8605 52.2266C20.7954 52.4089 20.7107 52.5 20.6066 52.5C20.5024 52.5 20.3917 52.3698 20.2745 52.1094C20.1573 51.9141 20.0988 51.7578 20.0988 51.6406C20.0988 51.5885 20.1118 51.4844 20.1378 51.3281C20.1508 51.0677 20.1573 50.8203 20.1573 50.5859C20.1573 49.8307 20.1248 49.0625 20.0597 48.2812C20.0337 47.8646 19.9685 47.4674 19.8644 47.0898C19.8383 46.9857 19.8253 46.8945 19.8253 46.8164C19.8253 46.6471 19.8904 46.5625 20.0206 46.5625ZM25.1573 45.8789C25.2745 45.8789 25.6001 46.0352 26.1339 46.3477C26.4855 46.556 26.6613 46.7448 26.6613 46.9141C26.6613 47.0052 26.6092 47.168 26.505 47.4023C26.4139 47.5195 26.3683 47.9362 26.3683 48.6523C26.3683 49.3555 26.3813 49.9414 26.4073 50.4102C26.4204 50.6966 26.4269 50.9505 26.4269 51.1719C26.4269 51.5755 26.3488 51.9206 26.1925 52.207C25.9972 52.5586 25.8084 52.7344 25.6261 52.7344C25.548 52.7344 25.4438 52.6302 25.3136 52.4219C25.1183 52.1094 25.0206 51.8294 25.0206 51.582C25.0206 51.4648 25.0402 51.2891 25.0792 51.0547C25.1183 50.8073 25.1378 50.5729 25.1378 50.3516C25.1378 48.3203 25.0532 47.2005 24.8839 46.9922C24.7928 46.9141 24.63 46.875 24.3956 46.875C23.9659 46.875 23.3409 46.9531 22.5206 47.1094C21.8045 47.2786 21.2967 47.3633 20.9972 47.3633C20.7107 47.3633 20.4764 47.2982 20.2941 47.168C20.1508 47.0898 20.0792 46.9987 20.0792 46.8945C20.0792 46.8164 20.1704 46.7773 20.3527 46.7773C21.5115 46.6471 22.8266 46.4128 24.298 46.0742C24.7928 45.944 25.0792 45.8789 25.1573 45.8789ZM24.2589 48.4766C24.3891 48.4766 24.643 48.5221 25.0206 48.6133C25.3722 48.7305 25.548 48.8346 25.548 48.9258C25.548 49.069 25.3396 49.1862 24.923 49.2773C24.5844 49.3034 24.298 49.3359 24.0636 49.375C23.8553 49.401 23.3279 49.4727 22.4816 49.5898C22.0128 49.6549 21.6743 49.6875 21.4659 49.6875C21.1925 49.6875 20.9712 49.6615 20.8019 49.6094C20.5284 49.5182 20.3917 49.4206 20.3917 49.3164C20.3917 49.1471 20.6001 49.056 21.0167 49.043C21.9803 48.9128 22.9113 48.75 23.8097 48.5547C24.0831 48.5026 24.2329 48.4766 24.2589 48.4766ZM24.4738 50.8984C24.643 50.8984 24.8969 50.9766 25.2355 51.1328C25.4959 51.3151 25.6261 51.4648 25.6261 51.582C25.6261 51.6471 25.561 51.6797 25.4308 51.6797C24.936 51.6797 24.4738 51.6992 24.0441 51.7383C22.742 51.8294 22.0909 51.875 22.0909 51.875C21.7394 51.901 21.4659 51.9141 21.2706 51.9141C20.9581 51.9141 20.7498 51.862 20.6456 51.7578C20.5284 51.6406 20.4698 51.5365 20.4698 51.4453C20.4698 51.3021 20.561 51.2305 20.7433 51.2305C21.7329 51.1914 22.6573 51.1068 23.5167 50.9766C23.9985 50.9245 24.3175 50.8984 24.4738 50.8984Z" fill="#CB6843"/>
</svg>
