<svg width="414" height="245" viewBox="0 0 414 245" fill="none" xmlns="http://www.w3.org/2000/svg">
<path d="M64.1936 6.19644C64.1936 5.5809 63.9481 4.99055 63.5111 4.5553C63.0742 4.12004 62.4815 3.87553 61.8635 3.87553H6.20099C5.583 3.87553 4.99032 4.12004 4.55333 4.5553C4.11635 4.99055 3.87085 5.5809 3.87085 6.19644L3.87085 64.0427C3.87085 64.6583 4.11635 65.2486 4.55333 65.6838C4.99032 66.1191 5.583 66.3636 6.20099 66.3636H15.7686L15.7697 182.044H6.2021C5.58411 182.044 4.99143 182.289 4.55444 182.724C4.11746 183.159 3.87196 183.75 3.87196 184.365L3.87196 242.211C3.87196 242.827 4.11746 243.417 4.55444 243.853C4.99143 244.288 5.58411 244.532 6.2021 244.532H61.8646C62.4826 244.532 63.0753 244.288 63.5122 243.853C63.9492 243.417 64.1947 242.827 64.1947 242.211V233.002L353.394 233.002V242.211C353.394 242.827 353.639 243.417 354.076 243.853C354.513 244.288 355.106 244.532 355.724 244.532H411.396C412.014 244.532 412.606 244.288 413.043 243.853C413.48 243.417 413.726 242.827 413.726 242.211V184.365C413.726 183.75 413.48 183.159 413.043 182.724C412.606 182.289 412.014 182.044 411.396 182.044H401.828L401.827 66.3636H411.394C412.012 66.3636 412.605 66.1191 413.042 65.6838C413.479 65.2486 413.725 64.6583 413.725 64.0427V6.19644C413.725 5.5809 413.479 4.99055 413.042 4.5553C412.605 4.12004 412.012 3.87553 411.394 3.87553H355.723C355.105 3.87553 354.512 4.12004 354.075 4.5553C353.638 4.99055 353.392 5.5809 353.392 6.19644V15.4244L64.1936 15.4244V6.19644ZM8.53114 61.7218L8.53114 8.51732H59.5333V15.4244H31.4644C30.8464 15.4244 30.2537 15.6689 29.8168 16.1041C29.3798 16.5394 29.1343 17.1297 29.1343 17.7453V29.0388H18.0987C17.4807 29.0388 16.888 29.2833 16.451 29.7186C16.0141 30.1538 15.7686 30.7442 15.7686 31.3597L15.7686 61.7218H8.53114ZM353.392 54.8798V64.0427C353.392 64.6583 353.638 65.2486 354.075 65.6838C354.512 66.1191 355.105 66.3636 355.723 66.3636H364.843V71.6832H347.973V54.8798H353.392ZM386.145 54.5316C386.758 54.5243 387.344 54.2766 387.775 53.8421C388.206 53.4076 388.447 52.8215 388.447 52.2107V40.8569C388.447 40.2413 388.202 39.651 387.765 39.2157C387.328 38.7805 386.735 38.5359 386.117 38.5359H378.041C377.423 38.5359 376.83 38.7805 376.393 39.2157C375.956 39.651 375.711 40.2413 375.711 40.8569C375.711 41.4724 375.956 42.0627 376.393 42.498C376.83 42.9332 377.423 43.1777 378.041 43.1777H383.796V49.8898H369.512V33.6806H397.167V61.7218H369.512V54.5316H385.124H386.145ZM364.843 31.3736V50.238H358.053V20.0662H383.787V29.0388H367.182C366.564 29.0388 365.972 29.2833 365.535 29.7186C365.098 30.1538 364.852 30.7442 364.852 31.3597L364.843 31.3736ZM364.843 54.8798V61.7218H358.053V54.8798H364.843ZM343.303 52.5589V74.0876C343.303 74.7032 343.548 75.2935 343.985 75.7287C344.422 76.164 345.015 76.4085 345.633 76.4085H387.068L387.069 171.999L345.644 171.999C345.026 171.999 344.433 172.244 343.996 172.679C343.559 173.114 343.313 173.705 343.313 174.32V218.311L74.2796 218.311V174.32C74.2796 173.705 74.0341 173.114 73.5971 172.679C73.1601 172.244 72.5674 171.999 71.9494 171.999H30.5148L30.5137 76.4085H71.9483C72.5663 76.4085 73.159 76.164 73.596 75.7287C74.033 75.2935 74.2785 74.7032 74.2785 74.0876V30.0925L343.312 30.0925L343.303 52.5589ZM358.054 228.36V198.114H364.844V217.048C364.844 217.664 365.089 218.254 365.526 218.689C365.963 219.125 366.556 219.369 367.174 219.369H383.788V228.36H358.054ZM369.504 214.727V198.518H383.788V205.239H378.042C377.424 205.239 376.831 205.484 376.394 205.919C375.957 206.354 375.712 206.945 375.712 207.56C375.712 208.176 375.957 208.766 376.394 209.201C376.831 209.637 377.424 209.881 378.042 209.881H386.127C386.745 209.881 387.338 209.637 387.775 209.201C388.212 208.766 388.458 208.176 388.458 207.56V196.211C388.458 195.6 388.216 195.014 387.785 194.58C387.354 194.145 386.769 193.897 386.155 193.89H385.098H369.514V186.7H397.168V214.727H369.504ZM364.844 193.454H358.054V186.686H364.844V193.454ZM353.394 184.365V193.472H347.974V176.66L364.853 176.66V182.044H355.724C355.106 182.044 354.513 182.289 354.076 182.724C353.639 183.159 353.394 183.75 353.394 184.365ZM64.1947 193.472V184.384C64.1947 183.768 63.9492 183.178 63.5122 182.743C63.0753 182.307 62.4826 182.063 61.8646 182.063H52.7397V176.66H69.6193V193.472H64.1947ZM31.4376 193.909C30.8244 193.916 30.2389 194.164 29.808 194.598C29.377 195.033 29.1353 195.619 29.1354 196.23V207.56C29.1354 208.176 29.3809 208.766 29.8179 209.201C30.2549 209.637 30.8475 209.881 31.4655 209.881H39.5558C40.1738 209.881 40.7665 209.637 41.2034 209.201C41.6404 208.766 41.8859 208.176 41.8859 207.56C41.8859 206.945 41.6404 206.354 41.2034 205.919C40.7665 205.484 40.1738 205.239 39.5558 205.239H33.7957V198.518H48.0795V214.727H20.43V186.686H48.0795L48.0795 193.876H32.4721L31.4376 193.909ZM52.7397 217.048V198.114H59.5344V228.36H33.7957V219.369H50.4096C51.0276 219.369 51.6203 219.125 52.0573 218.689C52.4942 218.254 52.7397 217.664 52.7397 217.048ZM52.7397 193.454L52.7397 186.686H59.5344L59.5344 193.472L52.7397 193.454ZM69.6182 71.6832H52.7386V66.3636H61.8635C62.4815 66.3636 63.0742 66.1191 63.5111 65.6838C63.9481 65.2486 64.1936 64.6583 64.1936 64.0427V54.8798H69.6182V71.6832ZM59.5333 61.7218H52.7386V54.8798H59.5333V61.7218ZM48.0783 33.6806V49.8898H33.7946V43.1638H39.5547C40.1727 43.1638 40.7654 42.9193 41.2023 42.484C41.6393 42.0488 41.8848 41.4585 41.8848 40.8429C41.8848 40.2274 41.6393 39.6371 41.2023 39.2018C40.7654 38.7665 40.1727 38.522 39.5547 38.522H31.4644C30.8464 38.522 30.2537 38.7665 29.8168 39.2018C29.3798 39.6371 29.1343 40.2274 29.1343 40.8429L29.1343 52.1968C29.1342 52.8075 29.3759 53.3937 29.8068 53.8282C30.2378 54.2626 30.8233 54.5103 31.4365 54.5177H32.499H48.0783V61.7218H20.4289L20.4289 33.6806H48.0783ZM52.7386 50.224V31.3597C52.7386 30.7442 52.4931 30.1538 52.0561 29.7186C51.6192 29.2833 51.0265 29.0388 50.4085 29.0388H33.7946V20.0662H59.5333V50.238L52.7386 50.224ZM20.4289 66.3636H48.0783V71.7667H28.1836C27.5656 71.7667 26.9729 72.0112 26.5359 72.4465C26.0989 72.8817 25.8534 73.4721 25.8534 74.0876L25.8545 174.32C25.8545 174.936 26.1 175.526 26.537 175.961C26.974 176.397 27.5667 176.641 28.1847 176.641H48.0795V182.044H20.43L20.4289 66.3636ZM59.5344 239.891H8.53225L8.53225 186.686H15.7697L15.7697 217.048C15.7697 217.664 16.0152 218.254 16.4522 218.689C16.8891 219.125 17.4818 219.369 18.0998 219.369H29.1354V230.681C29.1354 231.297 29.3809 231.887 29.8179 232.322C30.2549 232.758 30.8475 233.002 31.4655 233.002H59.5344V239.891ZM64.1947 228.36V198.114H69.6193V220.632C69.6193 221.247 69.8648 221.837 70.3018 222.273C70.7388 222.708 71.3315 222.953 71.9494 222.953L345.644 222.953C346.262 222.953 346.854 222.708 347.291 222.273C347.728 221.837 347.974 221.247 347.974 220.632V198.114H353.394V228.36L64.1947 228.36ZM409.056 186.686V239.891H358.054V233.002H386.118C386.736 233.002 387.329 232.758 387.766 232.322C388.203 231.887 388.448 231.297 388.448 230.681V219.369H399.488C400.106 219.369 400.699 219.125 401.136 218.689C401.573 218.254 401.819 217.664 401.819 217.048V186.686H409.056ZM397.158 182.044H369.514V176.641H389.408C390.026 176.641 390.619 176.397 391.056 175.961C391.493 175.526 391.738 174.936 391.738 174.32L391.737 74.0876C391.737 73.4721 391.492 72.8817 391.055 72.4465C390.618 72.0112 390.025 71.7667 389.407 71.7667H369.512V66.3636H397.167L397.158 182.044ZM358.053 8.51732H409.064V61.7218H401.827V31.3597C401.827 30.7442 401.581 30.1538 401.144 29.7186C400.707 29.2833 400.115 29.0388 399.497 29.0388H388.456V17.7453C388.456 17.1297 388.211 16.5394 387.774 16.1041C387.337 15.6689 386.744 15.4244 386.126 15.4244H358.053V8.51732ZM353.392 20.0662V50.238H347.973V27.7716C347.973 27.156 347.727 26.5657 347.29 26.1305C346.853 25.6952 346.26 25.4507 345.642 25.4507L71.9483 25.4507C71.3303 25.4507 70.7377 25.6952 70.3007 26.1305C69.8637 26.5657 69.6182 27.156 69.6182 27.7716V50.238H64.1936V20.0662L353.392 20.0662Z" fill="#C9A66B"/>
<path d="M60.9016 2.89981C60.9016 2.28427 60.6561 1.69392 60.2191 1.25867C59.7822 0.82341 59.1895 0.578903 58.5715 0.578903H2.909C2.29101 0.578903 1.69833 0.82341 1.26134 1.25867C0.824354 1.69392 0.578857 2.28427 0.578857 2.89981L0.578857 60.7461C0.578857 61.3616 0.824354 61.9519 1.26134 62.3872C1.69833 62.8224 2.29101 63.067 2.909 63.067H12.4766L12.4777 178.748H2.91011C2.29212 178.748 1.69944 178.992 1.26245 179.427C0.825464 179.863 0.579968 180.453 0.579968 181.068L0.579968 238.915C0.579968 239.53 0.825464 240.121 1.26245 240.556C1.69944 240.991 2.29212 241.236 2.91011 241.236H58.5726C59.1906 241.236 59.7833 240.991 60.2203 240.556C60.6572 240.121 60.9027 239.53 60.9027 238.915V229.705L350.102 229.705V238.915C350.102 239.53 350.347 240.121 350.784 240.556C351.221 240.991 351.814 241.236 352.432 241.236H408.104C408.722 241.236 409.314 240.991 409.751 240.556C410.188 240.121 410.434 239.53 410.434 238.915V181.068C410.434 180.453 410.188 179.863 409.751 179.427C409.314 178.992 408.722 178.748 408.104 178.748H398.536L398.535 63.067H408.102C408.72 63.067 409.313 62.8224 409.75 62.3872C410.187 61.9519 410.433 61.3616 410.433 60.7461V2.89981C410.433 2.28427 410.187 1.69392 409.75 1.25867C409.313 0.82341 408.72 0.578903 408.102 0.578903H352.431C351.813 0.578903 351.22 0.82341 350.783 1.25867C350.346 1.69392 350.1 2.28427 350.1 2.89981V12.1277L60.9016 12.1277V2.89981ZM5.23915 58.4252L5.23915 5.22069H56.2413V12.1277H28.1724C27.5544 12.1277 26.9617 12.3723 26.5248 12.8075C26.0878 13.2428 25.8423 13.8331 25.8423 14.4486V25.7422H14.8067C14.1887 25.7422 13.596 25.9867 13.1591 26.4219C12.7221 26.8572 12.4766 27.4475 12.4766 28.0631L12.4766 58.4252H5.23915ZM350.1 51.5831V60.7461C350.1 61.3616 350.346 61.9519 350.783 62.3872C351.22 62.8224 351.813 63.067 352.431 63.067H361.551V68.3865H344.681V51.5831H350.1ZM382.853 51.235C383.466 51.2277 384.052 50.9799 384.483 50.5455C384.914 50.111 385.155 49.5248 385.155 48.9141V37.5602C385.155 36.9447 384.91 36.3543 384.473 35.9191C384.036 35.4838 383.443 35.2393 382.825 35.2393H374.749C374.131 35.2393 373.538 35.4838 373.101 35.9191C372.664 36.3543 372.419 36.9447 372.419 37.5602C372.419 38.1758 372.664 38.7661 373.101 39.2014C373.538 39.6366 374.131 39.8811 374.749 39.8811H380.504V46.5932H366.22V30.384H393.875V58.4252H366.22V51.235H381.832H382.853ZM361.551 28.077V46.9413H354.761V16.7696H380.495V25.7422H363.89C363.272 25.7422 362.68 25.9867 362.243 26.4219C361.806 26.8572 361.56 27.4475 361.56 28.0631L361.551 28.077ZM361.551 51.5831V58.4252H354.761V51.5831H361.551ZM340.011 49.2623V70.791C340.011 71.4065 340.256 71.9968 340.693 72.4321C341.13 72.8673 341.723 73.1119 342.341 73.1119H383.776L383.777 168.703L342.352 168.703C341.734 168.703 341.141 168.947 340.704 169.382C340.267 169.818 340.021 170.408 340.021 171.024V215.014L70.9876 215.014V171.024C70.9876 170.408 70.7421 169.818 70.3051 169.382C69.8681 168.947 69.2755 168.703 68.6575 168.703H27.2228L27.2217 73.1119H68.6563C69.2743 73.1119 69.867 72.8673 70.304 72.4321C70.741 71.9968 70.9865 71.4065 70.9865 70.791V26.7958L340.02 26.7958L340.011 49.2623ZM354.762 225.064V194.818H361.552V213.752C361.552 214.367 361.797 214.957 362.234 215.393C362.671 215.828 363.264 216.072 363.882 216.072H380.496V225.064H354.762ZM366.212 211.431V195.221H380.496V201.943H374.75C374.132 201.943 373.539 202.187 373.102 202.623C372.665 203.058 372.42 203.648 372.42 204.264C372.42 204.879 372.665 205.47 373.102 205.905C373.539 206.34 374.132 206.585 374.75 206.585H382.835C383.453 206.585 384.046 206.34 384.483 205.905C384.92 205.47 385.166 204.879 385.166 204.264V192.914C385.166 192.304 384.924 191.717 384.493 191.283C384.062 190.849 383.477 190.601 382.863 190.593H381.806H366.222V183.403H393.876V211.431H366.212ZM361.552 190.157H354.762V183.389H361.552V190.157ZM350.102 181.068V190.176H344.682V173.363L361.561 173.363V178.748H352.432C351.814 178.748 351.221 178.992 350.784 179.427C350.347 179.863 350.102 180.453 350.102 181.068ZM60.9027 190.176L60.9027 181.087C60.9027 180.472 60.6572 179.881 60.2203 179.446C59.7833 179.011 59.1906 178.766 58.5726 178.766H49.4477V173.363H66.3273V190.176H60.9027ZM28.1456 190.612C27.5324 190.619 26.9469 190.867 26.516 191.302C26.085 191.736 25.8433 192.322 25.8434 192.933V204.264C25.8434 204.879 26.0889 205.47 26.5259 205.905C26.9629 206.34 27.5555 206.585 28.1735 206.585H36.2638C36.8818 206.585 37.4745 206.34 37.9115 205.905C38.3484 205.47 38.5939 204.879 38.5939 204.264C38.5939 203.648 38.3484 203.058 37.9115 202.623C37.4745 202.187 36.8818 201.943 36.2638 201.943H30.5037V195.221H44.7875V211.431H17.138V183.389H44.7875L44.7875 190.58H29.1802L28.1456 190.612ZM49.4477 213.752V194.818H56.2425V225.064H30.5037V216.072H47.1176C47.7356 216.072 48.3283 215.828 48.7653 215.393C49.2023 214.957 49.4477 214.367 49.4477 213.752ZM49.4477 190.157L49.4477 183.389H56.2425L56.2425 190.176L49.4477 190.157ZM66.3262 68.3865H49.4466V63.067H58.5715C59.1895 63.067 59.7822 62.8224 60.2191 62.3872C60.6561 61.9519 60.9016 61.3616 60.9016 60.7461V51.5831H66.3262V68.3865ZM56.2413 58.4252H49.4466V51.5831H56.2413V58.4252ZM44.7864 30.384V46.5932H30.5026V39.8672H36.2627C36.8807 39.8672 37.4734 39.6227 37.9103 39.1874C38.3473 38.7522 38.5928 38.1618 38.5928 37.5463C38.5928 36.9308 38.3473 36.3404 37.9103 35.9052C37.4734 35.4699 36.8807 35.2254 36.2627 35.2254H28.1724C27.5544 35.2254 26.9617 35.4699 26.5248 35.9052C26.0878 36.3404 25.8423 36.9308 25.8423 37.5463L25.8423 48.9001C25.8422 49.5109 26.0839 50.0971 26.5148 50.5315C26.9458 50.966 27.5313 51.2137 28.1445 51.2211H29.207H44.7864V58.4252H17.1369L17.1369 30.384H44.7864ZM49.4466 46.9274V28.0631C49.4466 27.4475 49.2011 26.8572 48.7642 26.4219C48.3272 25.9867 47.7345 25.7422 47.1165 25.7422H30.5026V16.7696H56.2413V46.9413L49.4466 46.9274ZM17.1369 63.067H44.7864V68.4701H24.8916C24.2736 68.4701 23.6809 68.7146 23.2439 69.1498C22.8069 69.5851 22.5614 70.1754 22.5614 70.791L22.5625 171.024C22.5625 171.639 22.808 172.229 23.245 172.665C23.682 173.1 24.2747 173.345 24.8927 173.345H44.7875V178.748H17.138L17.1369 63.067ZM56.2425 236.594H5.24026L5.24026 183.389H12.4777L12.4777 213.752C12.4777 214.367 12.7232 214.957 13.1602 215.393C13.5972 215.828 14.1898 216.072 14.8078 216.072H25.8434V227.385C25.8434 228 26.0889 228.59 26.5259 229.026C26.9629 229.461 27.5555 229.705 28.1735 229.705H56.2425V236.594ZM60.9027 225.064V194.818H66.3273V217.335C66.3273 217.951 66.5728 218.541 67.0098 218.976C67.4468 219.411 68.0395 219.656 68.6575 219.656L342.352 219.656C342.97 219.656 343.562 219.411 343.999 218.976C344.436 218.541 344.682 217.951 344.682 217.335V194.818H350.102V225.064L60.9027 225.064ZM405.764 183.389V236.594H354.762V229.705H382.826C383.444 229.705 384.037 229.461 384.474 229.026C384.911 228.59 385.156 228 385.156 227.385V216.072H396.196C396.814 216.072 397.407 215.828 397.844 215.393C398.281 214.957 398.527 214.367 398.527 213.752V183.389H405.764ZM393.866 178.748H366.222V173.345H386.116C386.734 173.345 387.327 173.1 387.764 172.665C388.201 172.229 388.446 171.639 388.446 171.024L388.445 70.791C388.445 70.1754 388.2 69.5851 387.763 69.1498C387.326 68.7146 386.733 68.4701 386.115 68.4701H366.22V63.067H393.875L393.866 178.748ZM354.761 5.22069H405.772V58.4252H398.535V28.0631C398.535 27.4475 398.289 26.8572 397.852 26.4219C397.415 25.9867 396.823 25.7422 396.205 25.7422H385.164V14.4486C385.164 13.8331 384.919 13.2428 384.482 12.8075C384.045 12.3723 383.452 12.1277 382.834 12.1277H354.761V5.22069ZM350.1 16.7696V46.9413H344.681V24.4749C344.681 23.8594 344.435 23.2691 343.998 22.8338C343.561 22.3986 342.968 22.154 342.35 22.154L68.6563 22.154C68.0384 22.154 67.4457 22.3986 67.0087 22.8338C66.5717 23.2691 66.3262 23.8594 66.3262 24.4749V46.9413H60.9016V16.7696L350.1 16.7696Z" fill="#CB6843"/>
</svg>
